<?xml version="1.0" encoding="utf-8"?>
<!-- Generator: Adobe Illustrator 27.0.0, SVG Export Plug-In . SVG Version: 6.00 Build 0)  -->
<svg version="1.1" id="Layer_1" xmlns="http://www.w3.org/2000/svg" xmlns:xlink="http://www.w3.org/1999/xlink" x="0px" y="0px"
	 viewBox="0 0 1000 641.1" style="enable-background:new 0 0 1000 641.1;" xml:space="preserve">
<style type="text/css">
	.st0{fill:url(#SVGID_1_);}
	.st1{fill:#1D2E52;}
	.st2{fill:#1B2B50;}
	.st3{fill:url(#SVGID_00000015331553674053193950000007384183066414718385_);}
	.st4{fill:url(#SVGID_00000050654082250650968780000013157464316031642768_);}
	.st5{fill:url(#SVGID_00000012471733099954217750000018092200509081106097_);}
	.st6{fill:#FFFFFF;}
	.st7{fill:url(#SVGID_00000073712435652052652450000002319638345692392358_);}
	.st8{fill:url(#SVGID_00000118393721752427224800000001726497593178062472_);}
	.st9{fill:url(#SVGID_00000111189314023702261330000006862222409966951043_);}
	.st10{fill:url(#SVGID_00000146487419910745792950000006387158579384266679_);}
	.st11{fill:url(#SVGID_00000088100906837389184170000008883751803117327293_);}
	.st12{fill:url(#SVGID_00000024701738688316765790000014744242797982567583_);}
	.st13{fill:url(#SVGID_00000039129859227149617820000003426910340088448640_);}
	.st14{fill:url(#SVGID_00000037653608877546353110000001110246264188963765_);}
	.st15{fill:url(#SVGID_00000001650758693527985420000004400777028157829052_);}
	.st16{fill:url(#SVGID_00000044874370060970289760000004899979640386412703_);}
	.st17{fill:url(#SVGID_00000011009731593777637360000010263789383681095302_);}
	.st18{fill:url(#SVGID_00000071546190213065757360000007696763677268714906_);}
	.st19{fill:url(#SVGID_00000057835075656786235530000009473436336906159759_);}
	.st20{fill:url(#SVGID_00000013163296849567487260000010778320988339749261_);}
	.st21{fill:url(#SVGID_00000037689647491286214540000016779349503902735264_);}
	.st22{fill:url(#SVGID_00000120548071793066641870000005221977627850519469_);}
	.st23{fill:url(#SVGID_00000067212186599628121020000013089050899089276049_);}
	.st24{fill:url(#SVGID_00000029728644157038190750000011612446578522730384_);}
	.st25{fill:url(#SVGID_00000000188449754187138890000009069887916054834609_);}
	.st26{fill:url(#SVGID_00000178897480208818379810000015040689993226447516_);}
	.st27{fill:url(#SVGID_00000017483948253504649570000015762517229136763265_);}
	.st28{fill:url(#SVGID_00000144303452939937145490000009582007020378241937_);}
	.st29{fill:url(#SVGID_00000036251177652716792710000000455880561496455817_);}
	.st30{fill:url(#SVGID_00000121242119862250449160000002298015465170353578_);}
	.st31{fill:#A7A9AC;}
	.st32{fill:url(#SVGID_00000045582860613780379110000002664109859844716932_);}
	.st33{fill:url(#SVGID_00000044151405694783851220000009730420347140728451_);}
	.st34{fill:url(#SVGID_00000105402226034531666230000002564859529917252517_);}
	.st35{fill:url(#SVGID_00000020382308734532191500000001674834296924007313_);}
	.st36{fill:#6D6E71;}
	.st37{fill:url(#SVGID_00000014601324251993212480000013486502800837572024_);}
	.st38{fill:url(#SVGID_00000080181740753570456010000002407116696169846406_);}
	.st39{fill:url(#SVGID_00000176735990970492518930000001359585898108432032_);}
	.st40{fill:url(#SVGID_00000073687361330688044460000006327190234143918747_);}
	.st41{fill:#BCBEC0;}
</style>
<rect x="-1.6" width="1000" height="642.1"/>
<linearGradient id="SVGID_1_" gradientUnits="userSpaceOnUse" x1="400.7103" y1="148.8291" x2="635.9704" y2="148.8291">
	<stop  offset="0" style="stop-color:#1D7475"/>
	<stop  offset="0.5191" style="stop-color:#55ACA8"/>
	<stop  offset="1" style="stop-color:#1D7475"/>
</linearGradient>
<path class="st0" d="M636,103.9c-0.4,26.1-4.5,51.1-11.7,74.4C593,184,561.6,196,561.6,196v-29.4l6.8-0.3l-55.9-37.9l-53.5,39
	l6.2,0.1v26.9c-29.7-9.7-64.4-14-64.4-14C512.1,82.1,633.3,103.4,636,103.9z"/>
<path class="st1" d="M619.4,192.5c-9,23.9-21.3,45.7-36.3,64.6c-17.6-15.9-45.7-32.4-45.7-32.4C566.4,206.2,606.6,195.6,619.4,192.5
	z"/>
<path class="st2" d="M533.4,302.5c-10,6.5-20.4,12-31.3,16.4c-69-27.7-103.6-78.3-120.7-126.7c0,0,0.3,0,0.9,0.1L533.4,302.5z"/>
<linearGradient id="SVGID_00000132766710765907443180000014828341882120942994_" gradientUnits="userSpaceOnUse" x1="381.3717" y1="247.4071" x2="571.8362" y2="247.4071">
	<stop  offset="0" style="stop-color:#263B68"/>
	<stop  offset="1" style="stop-color:#24355B"/>
</linearGradient>
<path style="fill:url(#SVGID_00000132766710765907443180000014828341882120942994_);" d="M571.8,270.1
	c-11.6,12.5-24.5,23.4-38.4,32.4L381.4,192.3C391.3,193.3,481.5,204.2,571.8,270.1z"/>
<linearGradient id="SVGID_00000071519364853478884050000002694757838129720469_" gradientUnits="userSpaceOnUse" x1="365.3964" y1="107.8106" x2="635.9696" y2="107.8106">
	<stop  offset="0" style="stop-color:#A27B41"/>
	<stop  offset="1.663943e-02" style="stop-color:#A57F45"/>
	<stop  offset="0.3492" style="stop-color:#E0C68F"/>
	<stop  offset="0.503" style="stop-color:#F7E2AC"/>
	<stop  offset="0.5852" style="stop-color:#EFD8A2"/>
	<stop  offset="0.7257" style="stop-color:#D9BE87"/>
	<stop  offset="0.9063" style="stop-color:#B6945B"/>
	<stop  offset="1" style="stop-color:#A27B41"/>
</linearGradient>
<path style="fill:url(#SVGID_00000071519364853478884050000002694757838129720469_);" d="M375.5,173.4c-14.9-55.4-9-103.6-9-103.6
	c152.5-62.2,268.6,0,268.6,0c0.4,7,0.7,13.9,0.9,20.5c0,0-140.3-26.1-258.4,81.4L375.5,173.4z"/>
<linearGradient id="SVGID_00000121241887832537846420000004976363371554551185_" gradientUnits="userSpaceOnUse" x1="498.3973" y1="194.1102" x2="528.5256" y2="194.1102">
	<stop  offset="0" style="stop-color:#263B68"/>
	<stop  offset="1" style="stop-color:#24355B"/>
</linearGradient>
<polygon style="fill:url(#SVGID_00000121241887832537846420000004976363371554551185_);" points="498.4,174.7 528.5,174.7 
	528.5,208.5 516.2,213.6 498.4,204.7 "/>
<g>
	<path class="st6" d="M187.6,363.4c-7.7-5.8-16.5-9.9-26.4-12.4c-9.9-2.5-20.2-3.8-30.7-3.8h-13.9H106H92H75.9v0.7
		c2.2,0,4.2,0.4,6.2,1.2c2,0.8,3.7,1.9,5.1,3.2c1.5,1.4,2.6,3,3.5,4.8c0.9,1.8,1.3,3.8,1.3,5.9v116.3c0,2.1-0.4,4.1-1.3,5.9
		c-0.9,1.8-2.1,3.5-3.5,4.8c-1.5,1.4-3.2,2.4-5.1,3.2c-2,0.8-4,1.2-6.2,1.2v0.7H92h14h10.6h13.9c10.5,0,20.7-1.3,30.7-3.8
		c9.9-2.5,18.7-6.6,26.4-12.4c7.7-5.8,13.8-13.4,18.5-22.8c4.7-9.4,7-21.1,7-35c0-13.9-2.3-25.6-7-35
		C201.4,376.8,195.2,369.2,187.6,363.4z M183.8,452c-3.1,8.8-7.3,16.1-12.7,21.9c-5.4,5.9-11.7,10.2-18.9,13.1
		c-7.2,2.9-14.9,4.3-23.2,4.3h-12.3V351.2H129c8.2,0,15.9,1.4,23.2,4.3c7.2,2.9,13.5,7.2,18.9,13.1c5.4,5.9,9.6,13.2,12.7,21.9
		c3.1,8.8,4.7,19,4.7,30.7C188.4,432.9,186.9,443.2,183.8,452z"/>
	<path class="st6" d="M362.4,365.1c-7.2-6.3-15.5-11.1-25-14.3c-9.5-3.2-19.6-4.8-30.4-4.8c-10.8,0-20.9,1.6-30.6,4.8
		c-9.6,3.2-18,8-25.1,14.3c-7.1,6.3-12.7,14.2-16.8,23.6c-4.1,9.4-6.2,20.3-6.2,32.6c0,12.7,2.1,23.8,6.2,33.2
		c4.1,9.5,9.7,17.3,16.8,23.6c7.1,6.3,15.4,10.9,25.1,13.9c9.6,3,19.8,4.6,30.6,4.6c10.9,0,21.1-1.5,30.6-4.6
		c9.5-3,17.8-7.7,24.9-13.9c7.1-6.3,12.7-14.1,16.8-23.6c4.1-9.5,6.2-20.5,6.2-33.2c0-12.3-2.1-23.2-6.2-32.6
		C375.1,379.3,369.5,371.4,362.4,365.1z M356.7,452.3c-2.7,8.9-6.5,16.4-11.3,22.3c-4.8,5.9-10.5,10.4-17.1,13.4
		c-6.6,3-13.7,4.5-21.4,4.5c-7.6,0-14.7-1.5-21.3-4.5c-6.6-3-12.3-7.5-17.1-13.4c-4.8-5.9-8.6-13.4-11.3-22.3
		c-2.7-8.9-4.1-19.3-4.1-31.1c0-11.5,1.4-21.8,4.1-30.7c2.7-8.9,6.5-16.4,11.3-22.4c4.8-6,10.5-10.6,17.1-13.7
		c6.6-3.1,13.7-4.6,21.3-4.6c7.7,0,14.9,1.5,21.4,4.6c6.6,3.1,12.3,7.6,17.1,13.7c4.8,6,8.6,13.5,11.3,22.4
		c2.7,8.9,4.1,19.1,4.1,30.7C360.7,433,359.4,443.4,356.7,452.3z"/>
	<path class="st6" d="M528.8,347.2h-5.7l-51.3,140l-47.8-140h-19.9h-5.7h-16.1v0.7c2.1,0,4.2,0.4,6.2,1.2c2,0.8,3.7,1.9,5.1,3.2
		c1.5,1.4,2.6,3,3.5,4.8c0.9,1.8,1.3,3.8,1.3,5.9v116.3c0,2.1-0.4,4.1-1.3,5.9c-0.9,1.8-2.1,3.5-3.5,4.8c-1.5,1.4-3.2,2.4-5.1,3.2
		c-2,0.8-4,1.2-6.2,1.2v0.7h16.1h5.7h16.1v-0.7c-2.2,0-4.2-0.4-6.2-1.2c-2-0.8-3.7-1.9-5.1-3.2c-1.5-1.4-2.6-3-3.5-4.8
		c-0.9-1.9-1.3-3.8-1.3-5.9V363.7l45.4,131.5h19.4h5.7l48.6-132.5v116.6c0,2.1-0.4,4.1-1.3,5.9c-0.9,1.8-2.1,3.5-3.5,4.8
		c-1.5,1.4-3.2,2.4-5.1,3.2c-2,0.8-4,1.2-6.2,1.2v0.7h16.1h24.7H564v-0.7c-2.2,0-4.2-0.4-6.2-1.2c-2-0.8-3.7-1.9-5.1-3.2
		c-1.5-1.4-2.6-3-3.5-4.8c-0.9-1.9-1.3-3.8-1.3-5.9V363.1c0-2.1,0.4-4.1,1.3-5.9c0.9-1.9,2.1-3.5,3.5-4.8c1.5-1.4,3.2-2.4,5.1-3.2
		c2-0.8,4-1.2,6.2-1.2v-0.7h-16.1H528.8z"/>
	<path class="st6" d="M591.5,347.2h-16.1v0.7c2.1,0,4.2,0.4,6.2,1.2c2,0.8,3.7,1.9,5.1,3.2c1.5,1.4,2.6,3,3.5,4.8
		c0.9,1.8,1.3,3.8,1.3,5.9v116.3c0,2.1-0.4,4.1-1.3,5.9c-0.9,1.8-2.1,3.5-3.5,4.8c-1.5,1.4-3.2,2.4-5.1,3.2c-2,0.8-4,1.2-6.2,1.2
		v0.7h16.1h24.7h16.1v-0.7c-2.2,0-4.2-0.4-6.2-1.2c-2-0.8-3.7-1.9-5.1-3.2c-1.5-1.4-2.6-3-3.5-4.8c-0.9-1.9-1.3-3.8-1.3-5.9V363.1
		c0-2.1,0.4-4.1,1.3-5.9c0.9-1.9,2.1-3.5,3.5-4.8c1.5-1.4,3.2-2.4,5.1-3.2c2-0.8,4-1.2,6.2-1.2v-0.7h-16.1H591.5z"/>
	<path class="st6" d="M918,493.4c-4.8-2.2-8.9-5.9-12-10.2c-4.4-6.1-7.2-13.2-9.8-20.3c-14.6-38.5-29.3-77.1-43.9-115.6
		c-8.3,0.1-16.6,0.1-25,0.2c3.8,4.2,5,10.2,4.4,15.9s-2.6,11-4.6,16.2c-9.9,25.6-19.8,51.3-29.7,76.9c-3.7,9.7-7.5,19.4-12.7,28.3
		c-1.2,2.1-2.6,4.3-4.8,5.6c-4.4,2.7-9.1-0.9-11.6-4.5l-39.8-63.3c4-0.4,7.9-1,11.6-1.8c7-1.6,13.1-3.9,18.3-7.1
		c5.2-3.1,9.3-7.1,12.2-11.8c3-4.8,4.5-10.3,4.5-16.6c0-6.3-1.5-11.9-4.5-16.7c-3-4.8-7.1-8.7-12.2-11.9c-5.2-3.2-11.3-5.6-18.3-7.1
		c-7-1.6-14.6-2.4-22.9-2.4h-32.8h-16.1h-8.5h-16.1v0.7c2.1,0,4.2,0.4,6.2,1.2c2,0.8,3.7,1.9,5.1,3.2c1.5,1.4,2.6,3,3.5,4.8
		c0.9,1.8,1.3,3.8,1.3,5.9v116.3c0,2.1-0.4,4.1-1.3,5.9c-0.9,1.8-2.1,3.5-3.5,4.8c-1.5,1.4-3.2,2.4-5.1,3.2c-2,0.8-4,1.2-6.2,1.2
		v0.7h16.1h24.7h16.1v-0.7c-2.2,0-4.2-0.4-6.2-1.2c-2-0.8-3.7-1.9-5.1-3.2c-1.5-1.4-2.6-3-3.5-4.8c-0.9-1.9-1.3-3.8-1.3-5.9v-56.2
		h19.9l38.4,62.8c0.8,1.1,1,2.1,0.8,3.2c-0.3,1.1-0.9,2-1.8,2.8c-1,0.8-2.2,1.4-3.6,1.9c-1.5,0.5-3.1,0.7-4.8,0.7v0.7
		c9.3,0,18.7,0,28,0c15,0,29.9,0,44.9-0.1c-1.8,0-4.5-1.5-6.1-2.3c-2-1-3.7-2.3-5.1-4.1c-3.2-4-0.6-10.4,1-14.5
		c4.5-11.5,9.1-22.9,13.6-34.4c17.7,0,35.4,0,53.1,0c4.4,11.2,8.8,22.3,13.2,33.5c2,5,3.9,10.6,1.8,15.5c-1.6,3.7-5.5,6.2-9.5,6.2
		c18.7,0.1,37.4,0.2,56.1,0.3C922.1,495,920,494.3,918,493.4z M684.5,351.2h23.9c5.2,0,10.3,0.7,15.4,2c5.1,1.4,9.6,3.5,13.6,6.3
		c4,2.8,7.2,6.4,9.6,10.6c2.4,4.3,3.6,9.3,3.6,15.1c0,5.8-1.2,10.9-3.6,15.1c-2.4,4.3-5.6,7.8-9.6,10.6c-4,2.8-8.5,4.9-13.6,6.2
		c-5.1,1.3-10.2,2-15.4,2h-23.9V351.2z M811,435.8l25.3-64.9l25,64.9H811z"/>
</g>
<g>
	<path class="st31" d="M237.4,527.5v38.4h-7.1v-16.5h-19.9v16.5h-7.1v-38.4h7.1v15.9h19.9v-15.9H237.4z"/>
	<path class="st31" d="M275.7,546.7c0-11.4,8.8-19.8,20.7-19.8s20.7,8.3,20.7,19.8c0,11.4-8.8,19.8-20.7,19.8S275.7,558,275.7,546.7
		z M309.9,546.7c0-7.9-5.8-13.5-13.5-13.5c-7.7,0-13.5,5.7-13.5,13.5c0,7.9,5.8,13.5,13.5,13.5C304.1,560.2,309.9,554.5,309.9,546.7
		z"/>
	<path class="st31" d="M390.7,565.9l-0.1-25.5L378,561.5h-3.2l-12.6-20.8v25.1h-6.8v-38.4h5.9l15.3,25.5l15-25.5h5.9l0.1,38.4H390.7
		z"/>
	<path class="st31" d="M467.4,559.9v6h-28.8v-38.4h28.1v6h-20.9v10h18.6v5.9h-18.6v10.6H467.4z"/>
	<path class="st31" d="M549.3,546.7c0-11.5,8.8-19.8,20.6-19.8c6.3,0,11.6,2.3,15.2,6.4l-4.6,4.3c-2.8-3-6.3-4.5-10.3-4.5
		c-8,0-13.7,5.6-13.7,13.5c0,7.9,5.8,13.5,13.7,13.5c4,0,7.5-1.5,10.3-4.6l4.6,4.4c-3.6,4.2-8.9,6.4-15.3,6.4
		C558.1,566.4,549.3,558.1,549.3,546.7z"/>
	<path class="st31" d="M646.8,557h-19.2l-3.8,8.9h-7.4l17.3-38.4h7l17.3,38.4h-7.5L646.8,557z M644.4,551.4l-7.2-16.8l-7.2,16.8
		H644.4z"/>
	<path class="st31" d="M718.9,565.9l-7.9-11.3c-0.5,0.1-1,0.1-1.5,0.1h-8.7v11.2h-7.1v-38.4h15.8c10.1,0,16.4,5.2,16.4,13.7
		c0,5.8-3,10.1-8.2,12.1l8.8,12.6H718.9z M709.2,533.5h-8.3v15.3h8.3c6.3,0,9.5-2.9,9.5-7.7C718.7,536.3,715.5,533.5,709.2,533.5z"
		/>
	<path class="st31" d="M793.4,559.9v6h-28.8v-38.4h28.1v6h-20.9v10h18.6v5.9h-18.6v10.6H793.4z"/>
</g>
<g>
	<rect x="74.2" y="544.5" class="st31" width="90.8" height="3.4"/>
</g>
<g>
	<rect x="831.8" y="544.5" class="st31" width="90.8" height="3.4"/>
</g>
</svg>
