<?xml version="1.0" encoding="utf-8"?>
<!-- Generator: Adobe Illustrator 27.0.0, SVG Export Plug-In . SVG Version: 6.00 Build 0)  -->
<svg version="1.1" id="Layer_1" xmlns="http://www.w3.org/2000/svg" xmlns:xlink="http://www.w3.org/1999/xlink" x="0px" y="0px"
	 viewBox="0 0 1000 344.9" style="enable-background:new 0 0 1000 344.9;" xml:space="preserve">
<style type="text/css">
	.st0{fill:url(#SVGID_1_);}
	.st1{fill:#1D2E52;}
	.st2{fill:#1B2B50;}
	.st3{fill:url(#SVGID_00000137847553092771227580000009669767106021685669_);}
	.st4{fill:url(#SVGID_00000022540697171233180090000006247840776694774451_);}
	.st5{fill:url(#SVGID_00000029040638953129319540000008769992969335285401_);}
	.st6{fill:#FFFFFF;}
	.st7{fill:url(#SVGID_00000126299303190158118530000009256738003508484502_);}
	.st8{fill:url(#SVGID_00000016781287687308629740000016351220603495723692_);}
	.st9{fill:url(#SVGID_00000096018865395800398020000010685289084556928938_);}
	.st10{fill:url(#SVGID_00000064352605824751438930000014293531409870471848_);}
	.st11{fill:url(#SVGID_00000085932571397030957960000010786201767263415722_);}
	.st12{fill:url(#SVGID_00000012468929260702615800000012294348471353158320_);}
	.st13{fill:url(#SVGID_00000181074664983909462540000016449136538931964800_);}
	.st14{fill:url(#SVGID_00000025437060089430018080000006380899763104065162_);}
	.st15{fill:url(#SVGID_00000126287831258878015030000011375044097338297755_);}
	.st16{fill:url(#SVGID_00000176016231650025828370000007996191678935881655_);}
	.st17{fill:url(#SVGID_00000034785911795040276880000004089522474921284262_);}
	.st18{fill:url(#SVGID_00000156552355281507594180000001055502067594961290_);}
	.st19{fill:url(#SVGID_00000085933795832436905400000003344075520208585118_);}
	.st20{fill:url(#SVGID_00000103233710185412951490000003574823310366327727_);}
	.st21{fill:url(#SVGID_00000127035726228052974200000008176976733411915920_);}
	.st22{fill:url(#SVGID_00000018207246958278474830000003002208531253848715_);}
	.st23{fill:url(#SVGID_00000072256320055101448030000007577259974033030058_);}
	.st24{fill:url(#SVGID_00000092440692595282490260000007977806425697316482_);}
	.st25{fill:url(#SVGID_00000092427489430113444760000013456541365759400100_);}
	.st26{fill:url(#SVGID_00000163064261145167411640000012577343246952054441_);}
	.st27{fill:url(#SVGID_00000048482274557861297280000013748915495194531969_);}
	.st28{fill:url(#SVGID_00000032632965001511511020000001985998556519583161_);}
	.st29{fill:url(#SVGID_00000139260425936142507810000006879913956720613285_);}
	.st30{fill:url(#SVGID_00000109738229757102084580000008570832912174909327_);}
	.st31{fill:#A7A9AC;}
	.st32{fill:url(#SVGID_00000110445660316295002830000012122934451833749178_);}
	.st33{fill:url(#SVGID_00000109017494462626011040000002673218297043322813_);}
	.st34{fill:url(#SVGID_00000014601402634547022150000006445033484466902715_);}
	.st35{fill:url(#SVGID_00000051375749082795025750000015075874459588906144_);}
	.st36{fill:#6D6E71;}
	.st37{fill:url(#SVGID_00000102543415043724884920000007686302499663816614_);}
	.st38{fill:url(#SVGID_00000067942918211896936710000009272354578555505301_);}
	.st39{fill:url(#SVGID_00000167368467028876091660000003772113200450823064_);}
	.st40{fill:url(#SVGID_00000077283354267253587890000012813337739015334284_);}
	.st41{fill:#BCBEC0;}
</style>
<rect width="1000" height="344.9"/>
<linearGradient id="SVGID_1_" gradientUnits="userSpaceOnUse" x1="102.0814" y1="149.6055" x2="277.1463" y2="149.6055">
	<stop  offset="0" style="stop-color:#1D7475"/>
	<stop  offset="0.5191" style="stop-color:#55ACA8"/>
	<stop  offset="1" style="stop-color:#1D7475"/>
</linearGradient>
<path class="st0" d="M270.6,171.1c3.9-15.9,6.3-34.1,6.6-54.9c0,0-91.3-17-175.1,57c0,0,25.8,3.2,47.9,10.4v-20l-4.6-0.1l39.8-29
	l41.6,28.2l-5.1,0.3v21.8c0,0,24.1-9.2,47.7-13.4L270.6,171.1z"/>
<path class="st1" d="M241.4,233.6c10.3-13.3,19.7-30.4,26.3-52.3c0,0-38,8.2-64,24.6c0,0,24,14.2,36.7,26.7L241.4,233.6z"/>
<path class="st2" d="M88.4,182c-0.4,0-0.7-0.1-0.7-0.1c13,36.8,39.6,75.3,93.2,95.6c0,0,10.1-2.6,23.7-10.8L88.4,182z"/>
<linearGradient id="SVGID_00000018951799409849825030000011617954054333457829_" gradientUnits="userSpaceOnUse" x1="99.4438" y1="178.3888" x2="216.7388" y2="252.7212">
	<stop  offset="0" style="stop-color:#263B68"/>
	<stop  offset="1" style="stop-color:#24355B"/>
</linearGradient>
<path style="fill:url(#SVGID_00000018951799409849825030000011617954054333457829_);" d="M233.6,243l-2-1.5
	c-67.9-50.5-136.5-58.8-144-59.6l116.9,84.8C213.4,261.4,223.6,253.8,233.6,243z"/>
<linearGradient id="SVGID_00000057134146227192189420000006835861348061547686_" gradientUnits="userSpaceOnUse" x1="75.8085" y1="119.0879" x2="277.1187" y2="119.0879">
	<stop  offset="0" style="stop-color:#A27B41"/>
	<stop  offset="1.663943e-02" style="stop-color:#A57F45"/>
	<stop  offset="0.3492" style="stop-color:#E0C68F"/>
	<stop  offset="0.503" style="stop-color:#F7E2AC"/>
	<stop  offset="0.5852" style="stop-color:#EFD8A2"/>
	<stop  offset="0.7257" style="stop-color:#D9BE87"/>
	<stop  offset="0.9063" style="stop-color:#B6945B"/>
	<stop  offset="1" style="stop-color:#A27B41"/>
</linearGradient>
<path style="fill:url(#SVGID_00000057134146227192189420000006835861348061547686_);" d="M83.3,167.9c-11.1-41.2-6.7-77.1-6.7-77.1
	c113.5-46.2,199.8,0,199.8,0c0.3,5.2,0.5,10.3,0.6,15.3c0,0-104.4-19.4-192.2,60.5L83.3,167.9z"/>
<linearGradient id="SVGID_00000075858152006188160170000003241606041216988604_" gradientUnits="userSpaceOnUse" x1="174.3367" y1="172.6117" x2="198.7342" y2="188.0729">
	<stop  offset="0" style="stop-color:#263B68"/>
	<stop  offset="1" style="stop-color:#24355B"/>
</linearGradient>
<polygon style="fill:url(#SVGID_00000075858152006188160170000003241606041216988604_);" points="174.8,168.8 197.2,168.8 
	197.2,194 188,197.8 174.8,191.2 "/>
<g>
	<path class="st6" d="M382.7,116.3c-5.7-4.3-12.2-7.4-19.6-9.2c-7.4-1.9-15-2.8-22.7-2.8h-10.3h-7.9h-10.4h-12v0.5
		c1.6,0,3.1,0.3,4.6,0.9c1.5,0.6,2.7,1.4,3.8,2.4c1.1,1,1.9,2.2,2.6,3.6c0.7,1.4,1,2.8,1,4.4v86.3c0,1.6-0.3,3-1,4.4
		c-0.7,1.4-1.5,2.6-2.6,3.6c-1.1,1-2.3,1.8-3.8,2.4c-1.5,0.6-3,0.9-4.6,0.9v0.5h12h10.4h7.9h10.3c7.8,0,15.4-0.9,22.7-2.8
		c7.4-1.9,13.9-4.9,19.6-9.2c5.7-4.3,10.3-9.9,13.7-16.9c3.5-7,5.2-15.7,5.2-26c0-10.3-1.7-19-5.2-26
		C393,126.2,388.4,120.6,382.7,116.3z M379.9,182c-2.3,6.5-5.4,11.9-9.4,16.3c-4,4.3-8.7,7.6-14,9.7c-5.4,2.1-11.1,3.2-17.2,3.2
		h-9.2V107.2h9.2c6.1,0,11.8,1.1,17.2,3.2c5.4,2.1,10,5.4,14,9.7c4,4.3,7.1,9.8,9.4,16.3c2.3,6.5,3.5,14.1,3.5,22.8
		C383.3,167.9,382.2,175.5,379.9,182z"/>
	<path class="st6" d="M509.5,117.5c-5.3-4.7-11.5-8.3-18.5-10.6c-7-2.4-14.6-3.6-22.5-3.6c-8,0-15.5,1.2-22.7,3.6
		c-7.1,2.4-13.3,5.9-18.6,10.6c-5.3,4.7-9.4,10.5-12.5,17.5c-3.1,7-4.6,15.1-4.6,24.2c0,9.4,1.5,17.6,4.6,24.7
		c3.1,7,7.2,12.9,12.5,17.5c5.3,4.6,11.5,8.1,18.6,10.3c7.1,2.3,14.7,3.4,22.7,3.4c8.1,0,15.6-1.1,22.7-3.4
		c7-2.3,13.2-5.7,18.5-10.3c5.3-4.6,9.4-10.5,12.5-17.5c3.1-7,4.6-15.2,4.6-24.7c0-9.2-1.5-17.2-4.6-24.2
		C518.9,128.1,514.8,122.2,509.5,117.5z M505.2,182.3c-2,6.6-4.8,12.2-8.4,16.6c-3.6,4.4-7.8,7.7-12.7,10
		c-4.9,2.2-10.2,3.3-15.9,3.3c-5.6,0-10.9-1.1-15.8-3.3c-4.9-2.2-9.1-5.5-12.7-10c-3.6-4.4-6.4-9.9-8.4-16.6c-2-6.6-3-14.3-3-23.1
		c0-8.6,1-16.1,3-22.7c2-6.6,4.8-12.1,8.4-16.6c3.6-4.5,7.8-7.9,12.7-10.1c4.9-2.3,10.1-3.4,15.8-3.4c5.7,0,11,1.1,15.9,3.4
		c4.9,2.3,9.1,5.7,12.7,10.1c3.6,4.5,6.4,10,8.4,16.6c2,6.6,3,14.2,3,22.7C508.3,168,507.3,175.7,505.2,182.3z"/>
	<path class="st6" d="M632.9,104.3h-4.2l-38.1,103.8l-35.4-103.8h-14.8h-4.2h-12v0.5c1.6,0,3.1,0.3,4.6,0.9c1.5,0.6,2.7,1.4,3.8,2.4
		c1.1,1,1.9,2.2,2.6,3.6c0.7,1.4,1,2.8,1,4.4v86.3c0,1.6-0.3,3-1,4.4c-0.7,1.4-1.5,2.6-2.6,3.6c-1.1,1-2.3,1.8-3.8,2.4
		c-1.5,0.6-3,0.9-4.6,0.9v0.5h12h4.2h12v-0.5c-1.6,0-3.1-0.3-4.6-0.9c-1.5-0.6-2.7-1.4-3.8-2.4c-1.1-1-2-2.2-2.6-3.6
		c-0.7-1.4-1-2.8-1-4.4v-85.8l33.7,97.6h14.4h4.2l36.1-98.3v86.5c0,1.6-0.3,3-1,4.4c-0.7,1.4-1.5,2.6-2.6,3.6
		c-1.1,1-2.3,1.8-3.8,2.4c-1.5,0.6-3,0.9-4.6,0.9v0.5h12h18.3h12v-0.5c-1.6,0-3.1-0.3-4.6-0.9c-1.5-0.6-2.7-1.4-3.8-2.4
		c-1.1-1-2-2.2-2.6-3.6c-0.7-1.4-1-2.8-1-4.4v-86.3c0-1.6,0.3-3,1-4.4c0.7-1.4,1.5-2.6,2.6-3.6c1.1-1,2.3-1.8,3.8-2.4
		c1.5-0.6,3-0.9,4.6-0.9v-0.5h-12H632.9z"/>
	<path class="st6" d="M679.3,104.3h-12v0.5c1.6,0,3.1,0.3,4.6,0.9c1.5,0.6,2.7,1.4,3.8,2.4c1.1,1,1.9,2.2,2.6,3.6
		c0.7,1.4,1,2.8,1,4.4v86.3c0,1.6-0.3,3-1,4.4c-0.7,1.4-1.5,2.6-2.6,3.6c-1.1,1-2.3,1.8-3.8,2.4c-1.5,0.6-3,0.9-4.6,0.9v0.5h12h18.3
		h12v-0.5c-1.6,0-3.1-0.3-4.6-0.9c-1.5-0.6-2.7-1.4-3.8-2.4c-1.1-1-2-2.2-2.6-3.6c-0.7-1.4-1-2.8-1-4.4v-86.3c0-1.6,0.3-3,1-4.4
		c0.7-1.4,1.5-2.6,2.6-3.6c1.1-1,2.3-1.8,3.8-2.4c1.5-0.6,3-0.9,4.6-0.9v-0.5h-12H679.3z"/>
	<path class="st6" d="M921.6,212.6c-2.9-1.1-5.7-2.6-7.8-4.9c-2.5-2.7-3.9-6.2-5.2-9.7c-12-31.3-24-62.5-35.9-93.8
		c-6.2,0-12.3,0-18.5,0c0.7,4.1,4.1,7.6,4,11.8c0,1.8-0.7,3.4-1.3,5.1c-10.1,26-20.2,52-30.3,77.9c-1,2.5-1.9,5.1-3.4,7.5
		c-1,1.6-2.3,3.2-4,4.1c-2.1,1.1-4.2,0.4-6-0.9c-3-2.1-4.8-5.9-6.7-9c-2.4-3.7-4.7-7.5-7.1-11.2c-2.7-4.3-5.4-8.5-8.1-12.8
		c-2.3-3.6-4.6-7.2-6.8-10.9c-1.1-1.8-2.3-3.6-3.4-5.4c0,0-0.1-0.1-0.1-0.1c3-0.3,5.9-0.7,8.6-1.4c5.2-1.2,9.7-2.9,13.6-5.2
		c3.8-2.3,6.9-5.2,9.1-8.8c2.2-3.5,3.3-7.6,3.3-12.4c0-4.7-1.1-8.8-3.3-12.4c-2.2-3.5-5.2-6.5-9.1-8.8c-3.9-2.4-8.4-4.1-13.6-5.3
		c-5.2-1.2-10.9-1.8-17-1.8h-24.4h-12h-6.3h-12v0.5c1.6,0,3.1,0.3,4.6,0.9c1.5,0.6,2.7,1.4,3.8,2.4c1.1,1,1.9,2.2,2.6,3.6
		c0.7,1.4,1,2.8,1,4.4v86.3c0,1.6-0.3,3-1,4.4c-0.7,1.4-1.5,2.6-2.6,3.6c-1.1,1-2.3,1.8-3.8,2.4c-1.5,0.6-3,0.9-4.6,0.9v0.5h12h18.3
		h12v-0.5c-1.6,0-3.1-0.3-4.6-0.9c-1.5-0.6-2.7-1.4-3.8-2.4c-1.1-1-2-2.2-2.6-3.6c-0.7-1.4-1-2.8-1-4.4v-41.7h14.7l28.5,46.6
		c0.6,0.8,0.7,1.6,0.6,2.4c-0.2,0.8-0.6,1.5-1.3,2.1c-0.7,0.6-1.6,1.1-2.7,1.4c-1.1,0.4-2.3,0.5-3.6,0.5v0.5h26.1
		c4.6,0,9.1,0,13.7,0c4.8,0,9.7,0,14.5,0c-4-1.1-8.6-2.8-9.5-6.8c-0.6-2.3,0.3-4.7,1.2-7c3.6-9.1,7.1-18.2,10.7-27.3
		c13.2,0,26.4,0,39.6,0c3.7,9.6,7.4,19.3,11.1,28.9c0.7,1.8,1.4,3.8,1.1,5.7c-0.6,3.8-4.9,5.8-8.7,6.6c14.1,0,28.3,0,42.4,0
		C924.9,213.7,923.2,213.2,921.6,212.6z M748.4,107.2h17.7c3.8,0,7.7,0.5,11.4,1.5c3.8,1,7.1,2.6,10.1,4.7c3,2.1,5.3,4.7,7.1,7.9
		c1.8,3.2,2.7,6.9,2.7,11.2c0,4.3-0.9,8.1-2.7,11.2c-1.8,3.2-4.2,5.8-7.1,7.9c-3,2.1-6.3,3.6-10.1,4.6c-3.8,1-7.6,1.5-11.4,1.5
		h-17.7V107.2z M842.3,170l18.8-48.2l18.5,48.2H842.3z"/>
</g>
<g>
	<path class="st31" d="M420.8,239.5v28.4h-5.3v-12.2h-14.7v12.2h-5.3v-28.4h5.3v11.7h14.7v-11.7H420.8z"/>
	<path class="st31" d="M449.1,253.7c0-8.4,6.5-14.6,15.3-14.6c8.8,0,15.3,6.2,15.3,14.6c0,8.4-6.5,14.6-15.3,14.6
		C455.6,268.3,449.1,262.1,449.1,253.7z M474.3,253.7c0-5.8-4.3-10-10-10c-5.7,0-10,4.2-10,10c0,5.8,4.3,10,10,10
		C470.1,263.7,474.3,259.5,474.3,253.7z"/>
	<path class="st31" d="M534,267.9l0-18.8l-9.3,15.6h-2.4l-9.3-15.3v18.6h-5v-28.4h4.3l11.3,18.8l11.1-18.8h4.3l0,28.4H534z"/>
	<path class="st31" d="M590.6,263.4v4.4h-21.3v-28.4H590v4.4h-15.4v7.4h13.7v4.3h-13.7v7.8H590.6z"/>
	<path class="st31" d="M651,253.7c0-8.5,6.5-14.6,15.2-14.6c4.6,0,8.6,1.7,11.2,4.7L674,247c-2.1-2.2-4.6-3.3-7.6-3.3
		c-5.9,0-10.1,4.1-10.1,10c0,5.8,4.3,10,10.1,10c3,0,5.5-1.1,7.6-3.4l3.4,3.2c-2.6,3.1-6.6,4.7-11.3,4.7
		C657.5,268.3,651,262.2,651,253.7z"/>
	<path class="st31" d="M723,261.3h-14.2l-2.8,6.6h-5.4l12.8-28.4h5.2l12.8,28.4h-5.5L723,261.3z M721.3,257.2l-5.3-12.4l-5.3,12.4
		H721.3z"/>
	<path class="st31" d="M776.2,267.9l-5.8-8.3c-0.4,0-0.7,0-1.1,0h-6.4v8.3h-5.3v-28.4h11.7c7.5,0,12.1,3.8,12.1,10.1
		c0,4.3-2.2,7.5-6,9l6.5,9.3H776.2z M769.1,244h-6.2v11.3h6.2c4.6,0,7-2.1,7-5.7C776.1,246,773.7,244,769.1,244z"/>
	<path class="st31" d="M831.2,263.4v4.4H810v-28.4h20.7v4.4h-15.4v7.4h13.7v4.3h-13.7v7.8H831.2z"/>
</g>
<g>
	<rect x="300.4" y="252.1" class="st31" width="67" height="2.5"/>
</g>
<g>
	<rect x="859.5" y="252.1" class="st31" width="67" height="2.5"/>
</g>
</svg>
