<?xml version="1.0" encoding="utf-8"?>
<!-- Generator: Adobe Illustrator 27.0.0, SVG Export Plug-In . SVG Version: 6.00 Build 0)  -->
<svg version="1.1" id="Layer_1" xmlns="http://www.w3.org/2000/svg" xmlns:xlink="http://www.w3.org/1999/xlink" x="0px" y="0px"
	 viewBox="0 0 1000 641.1" style="enable-background:new 0 0 1000 641.1;" xml:space="preserve">
<style type="text/css">
	.st0{fill:url(#SVGID_1_);}
	.st1{fill:#1D2E52;}
	.st2{fill:#1B2B50;}
	.st3{fill:url(#SVGID_00000064350970271066742270000018333433922144013722_);}
	.st4{fill:url(#SVGID_00000078006790947465635400000014992337104643385217_);}
	.st5{fill:url(#SVGID_00000096761130927794040390000004006163171539605415_);}
	.st6{fill:#FFFFFF;}
	.st7{fill:url(#SVGID_00000005977383657820471780000017562986961798198158_);}
	.st8{fill:url(#SVGID_00000140731497435959484550000002368549988612818048_);}
	.st9{fill:url(#SVGID_00000160191210441509713700000006291309523073042618_);}
	.st10{fill:url(#SVGID_00000009550127889666037290000016320021138198492046_);}
	.st11{fill:url(#SVGID_00000045589515185508016530000015141709221670890898_);}
	.st12{fill:url(#SVGID_00000099651506021927796740000013783103067343218837_);}
	.st13{fill:url(#SVGID_00000131333092545765194320000012371377881729532078_);}
	.st14{fill:url(#SVGID_00000076587093550851791840000002328079779914194305_);}
	.st15{fill:url(#SVGID_00000111878800524563744700000012210391182125509037_);}
	.st16{fill:url(#SVGID_00000062903396034658423360000000758928140393228193_);}
	.st17{fill:url(#SVGID_00000181058483398981856540000012844772255246350982_);}
	.st18{fill:url(#SVGID_00000180348168113614087880000010891925183135693994_);}
	.st19{fill:url(#SVGID_00000072259155642127538060000007724922805999304096_);}
	.st20{fill:url(#SVGID_00000125600313992893471710000004905510009672333750_);}
	.st21{fill:url(#SVGID_00000102540470261033287970000004832680498313801636_);}
	.st22{fill:url(#SVGID_00000003084079962991115180000011210927470016900493_);}
	.st23{fill:url(#SVGID_00000072997696505761367570000018025813475866094473_);}
	.st24{fill:url(#SVGID_00000094603029815277656250000014684821575195822750_);}
	.st25{fill:url(#SVGID_00000042008963867650896660000010528344598323407007_);}
	.st26{fill:url(#SVGID_00000167398675933212648650000016639287542665697422_);}
	.st27{fill:url(#SVGID_00000028295508483803732630000013761058586122666162_);}
	.st28{fill:url(#SVGID_00000108301931712710893410000016634701694411572629_);}
	.st29{fill:url(#SVGID_00000054972898630528818390000008714344601924182948_);}
	.st30{fill:url(#SVGID_00000093166296158534022020000004949707514795825338_);}
	.st31{fill:#A7A9AC;}
	.st32{fill:url(#SVGID_00000136385130280393857660000007707772720364650374_);}
	.st33{fill:url(#SVGID_00000088099357353432777150000013103633315915885192_);}
	.st34{fill:url(#SVGID_00000094604875906396563610000004702893577701338528_);}
	.st35{fill:url(#SVGID_00000065049149359666726010000015516163482273662858_);}
	.st36{fill:#6D6E71;}
	.st37{fill:url(#SVGID_00000003100123855668899830000009703448856473082021_);}
	.st38{fill:url(#SVGID_00000140725310016425238510000005092771056717122203_);}
	.st39{fill:url(#SVGID_00000093136613826465581560000011468379786132867504_);}
	.st40{fill:url(#SVGID_00000144340033483313266960000014448066542339878284_);}
	.st41{fill:#BCBEC0;}
</style>
<linearGradient id="SVGID_1_" gradientUnits="userSpaceOnUse" x1="400.7103" y1="170.7894" x2="635.9704" y2="170.7894">
	<stop  offset="0" style="stop-color:#1D7475"/>
	<stop  offset="0.5191" style="stop-color:#55ACA8"/>
	<stop  offset="1" style="stop-color:#1D7475"/>
</linearGradient>
<path class="st0" d="M636,125.9c-0.4,26.1-4.5,51.1-11.7,74.4c-31.3,5.7-62.7,17.7-62.7,17.7v-29.4l6.8-0.3l-55.9-37.9l-53.5,39
	l6.2,0.1v26.9c-29.7-9.7-64.4-14-64.4-14C512.1,104.1,633.3,125.4,636,125.9z"/>
<path class="st1" d="M619.4,214.4c-9,23.9-21.3,45.7-36.3,64.6c-17.6-15.9-45.7-32.4-45.7-32.4C566.4,228.2,606.6,217.5,619.4,214.4
	z"/>
<path class="st2" d="M533.4,324.5c-10,6.5-20.4,12-31.3,16.4c-69-27.7-103.6-78.3-120.7-126.7c0,0,0.3,0,0.9,0.1L533.4,324.5z"/>
<linearGradient id="SVGID_00000130629546218347263740000013284740854372877696_" gradientUnits="userSpaceOnUse" x1="381.3717" y1="269.3673" x2="571.8362" y2="269.3673">
	<stop  offset="0" style="stop-color:#263B68"/>
	<stop  offset="1" style="stop-color:#24355B"/>
</linearGradient>
<path style="fill:url(#SVGID_00000130629546218347263740000013284740854372877696_);" d="M571.8,292.1
	c-11.6,12.5-24.5,23.4-38.4,32.4L381.4,214.2C391.3,215.2,481.5,226.2,571.8,292.1z"/>
<linearGradient id="SVGID_00000139273543963853247050000008284303939712713136_" gradientUnits="userSpaceOnUse" x1="365.3964" y1="129.7708" x2="635.9696" y2="129.7708">
	<stop  offset="0" style="stop-color:#A27B41"/>
	<stop  offset="1.663943e-02" style="stop-color:#A57F45"/>
	<stop  offset="0.3492" style="stop-color:#E0C68F"/>
	<stop  offset="0.503" style="stop-color:#F7E2AC"/>
	<stop  offset="0.5852" style="stop-color:#EFD8A2"/>
	<stop  offset="0.7257" style="stop-color:#D9BE87"/>
	<stop  offset="0.9063" style="stop-color:#B6945B"/>
	<stop  offset="1" style="stop-color:#A27B41"/>
</linearGradient>
<path style="fill:url(#SVGID_00000139273543963853247050000008284303939712713136_);" d="M375.5,195.4c-14.9-55.4-9-103.6-9-103.6
	c152.5-62.2,268.6,0,268.6,0c0.4,7,0.7,13.9,0.9,20.5c0,0-140.3-26.1-258.4,81.4L375.5,195.4z"/>
<linearGradient id="SVGID_00000126316198354431782510000008831763745863914380_" gradientUnits="userSpaceOnUse" x1="498.3973" y1="216.0704" x2="528.5256" y2="216.0704">
	<stop  offset="0" style="stop-color:#263B68"/>
	<stop  offset="1" style="stop-color:#24355B"/>
</linearGradient>
<polygon style="fill:url(#SVGID_00000126316198354431782510000008831763745863914380_);" points="498.4,196.6 528.5,196.6 
	528.5,230.5 516.2,235.5 498.4,226.6 "/>
<g>
	<path d="M187.6,385.4c-7.7-5.8-16.5-9.9-26.4-12.4c-9.9-2.5-20.2-3.8-30.7-3.8h-13.9H106H92H75.9v0.7c2.2,0,4.2,0.4,6.2,1.2
		c2,0.8,3.7,1.9,5.1,3.2c1.5,1.4,2.6,3,3.5,4.8c0.9,1.8,1.3,3.8,1.3,5.9v116.3c0,2.1-0.4,4.1-1.3,5.9c-0.9,1.8-2.1,3.5-3.5,4.8
		c-1.5,1.4-3.2,2.4-5.1,3.2c-2,0.8-4,1.2-6.2,1.2v0.7H92h14h10.6h13.9c10.5,0,20.7-1.3,30.7-3.8c9.9-2.5,18.7-6.6,26.4-12.4
		c7.7-5.8,13.8-13.4,18.5-22.8c4.7-9.4,7-21.1,7-35c0-13.9-2.3-25.6-7-35C201.4,398.7,195.2,391.1,187.6,385.4z M183.8,473.9
		c-3.1,8.8-7.3,16.1-12.7,21.9c-5.4,5.9-11.7,10.2-18.9,13.1c-7.2,2.9-14.9,4.3-23.2,4.3h-12.3V373.2H129c8.2,0,15.9,1.4,23.2,4.3
		c7.2,2.9,13.5,7.2,18.9,13.1c5.4,5.9,9.6,13.2,12.7,21.9c3.1,8.8,4.7,19,4.7,30.7C188.4,454.9,186.9,465.1,183.8,473.9z"/>
	<path d="M362.4,387c-7.2-6.3-15.5-11.1-25-14.3c-9.5-3.2-19.6-4.8-30.4-4.8c-10.8,0-20.9,1.6-30.6,4.8c-9.6,3.2-18,8-25.1,14.3
		c-7.1,6.3-12.7,14.2-16.8,23.6c-4.1,9.4-6.2,20.3-6.2,32.6c0,12.7,2.1,23.8,6.2,33.2c4.1,9.5,9.7,17.3,16.8,23.6
		c7.1,6.3,15.4,10.9,25.1,13.9c9.6,3,19.8,4.6,30.6,4.6c10.9,0,21.1-1.5,30.6-4.6c9.5-3,17.8-7.7,24.9-13.9
		c7.1-6.3,12.7-14.1,16.8-23.6c4.1-9.5,6.2-20.5,6.2-33.2c0-12.3-2.1-23.2-6.2-32.6C375.1,401.2,369.5,393.4,362.4,387z
		 M356.7,474.3c-2.7,8.9-6.5,16.4-11.3,22.3c-4.8,5.9-10.5,10.4-17.1,13.4c-6.6,3-13.7,4.5-21.4,4.5c-7.6,0-14.7-1.5-21.3-4.5
		c-6.6-3-12.3-7.5-17.1-13.4c-4.8-5.9-8.6-13.4-11.3-22.3c-2.7-8.9-4.1-19.3-4.1-31.1c0-11.5,1.4-21.8,4.1-30.7
		c2.7-8.9,6.5-16.4,11.3-22.4c4.8-6,10.5-10.6,17.1-13.7c6.6-3.1,13.7-4.6,21.3-4.6c7.7,0,14.9,1.5,21.4,4.6
		c6.6,3.1,12.3,7.6,17.1,13.7c4.8,6,8.6,13.5,11.3,22.4c2.7,8.9,4.1,19.1,4.1,30.7C360.7,455,359.4,465.4,356.7,474.3z"/>
	<path d="M528.8,369.2h-5.7l-51.3,140l-47.8-140h-19.9h-5.7h-16.1v0.7c2.1,0,4.2,0.4,6.2,1.2c2,0.8,3.7,1.9,5.1,3.2
		c1.5,1.4,2.6,3,3.5,4.8c0.9,1.8,1.3,3.8,1.3,5.9v116.3c0,2.1-0.4,4.1-1.3,5.9c-0.9,1.8-2.1,3.5-3.5,4.8c-1.5,1.4-3.2,2.4-5.1,3.2
		c-2,0.8-4,1.2-6.2,1.2v0.7h16.1h5.7h16.1v-0.7c-2.2,0-4.2-0.4-6.2-1.2c-2-0.8-3.7-1.9-5.1-3.2c-1.5-1.4-2.6-3-3.5-4.8
		c-0.9-1.9-1.3-3.8-1.3-5.9V385.7l45.4,131.5h19.4h5.7l48.6-132.5v116.6c0,2.1-0.4,4.1-1.3,5.9c-0.9,1.8-2.1,3.5-3.5,4.8
		c-1.5,1.4-3.2,2.4-5.1,3.2c-2,0.8-4,1.2-6.2,1.2v0.7h16.1h24.7H564v-0.7c-2.2,0-4.2-0.4-6.2-1.2c-2-0.8-3.7-1.9-5.1-3.2
		c-1.5-1.4-2.6-3-3.5-4.8c-0.9-1.9-1.3-3.8-1.3-5.9V385c0-2.1,0.4-4.1,1.3-5.9c0.9-1.9,2.1-3.5,3.5-4.8c1.5-1.4,3.2-2.4,5.1-3.2
		c2-0.8,4-1.2,6.2-1.2v-0.7h-16.1H528.8z"/>
	<path d="M591.5,369.2h-16.1v0.7c2.1,0,4.2,0.4,6.2,1.2c2,0.8,3.7,1.9,5.1,3.2c1.5,1.4,2.6,3,3.5,4.8c0.9,1.8,1.3,3.8,1.3,5.9v116.3
		c0,2.1-0.4,4.1-1.3,5.9c-0.9,1.8-2.1,3.5-3.5,4.8c-1.5,1.4-3.2,2.4-5.1,3.2c-2,0.8-4,1.2-6.2,1.2v0.7h16.1h24.7h16.1v-0.7
		c-2.2,0-4.2-0.4-6.2-1.2c-2-0.8-3.7-1.9-5.1-3.2c-1.5-1.4-2.6-3-3.5-4.8c-0.9-1.9-1.3-3.8-1.3-5.9V385c0-2.1,0.4-4.1,1.3-5.9
		c0.9-1.9,2.1-3.5,3.5-4.8c1.5-1.4,3.2-2.4,5.1-3.2c2-0.8,4-1.2,6.2-1.2v-0.7h-16.1H591.5z"/>
	<path d="M918,515.4c-4.8-2.2-8.9-5.9-12-10.2c-4.4-6.1-7.2-13.2-9.8-20.3c-14.6-38.5-29.3-77.1-43.9-115.6
		c-8.3,0.1-16.6,0.1-25,0.2c3.8,4.2,5,10.2,4.4,15.9s-2.6,11-4.6,16.2c-9.9,25.6-19.8,51.3-29.7,76.9c-3.7,9.7-7.5,19.4-12.7,28.3
		c-1.2,2.1-2.6,4.3-4.8,5.6c-4.4,2.7-9.1-0.9-11.6-4.5l-39.8-63.3c4-0.4,7.9-1,11.6-1.8c7-1.6,13.1-3.9,18.3-7.1
		c5.2-3.1,9.3-7.1,12.2-11.8c3-4.8,4.5-10.3,4.5-16.6c0-6.3-1.5-11.9-4.5-16.7c-3-4.8-7.1-8.7-12.2-11.9c-5.2-3.2-11.3-5.6-18.3-7.1
		c-7-1.6-14.6-2.4-22.9-2.4h-32.8h-16.1h-8.5h-16.1v0.7c2.1,0,4.2,0.4,6.2,1.2c2,0.8,3.7,1.9,5.1,3.2c1.5,1.4,2.6,3,3.5,4.8
		c0.9,1.8,1.3,3.8,1.3,5.9v116.3c0,2.1-0.4,4.1-1.3,5.9c-0.9,1.8-2.1,3.5-3.5,4.8c-1.5,1.4-3.2,2.4-5.1,3.2c-2,0.8-4,1.2-6.2,1.2
		v0.7h16.1h24.7h16.1v-0.7c-2.2,0-4.2-0.4-6.2-1.2c-2-0.8-3.7-1.9-5.1-3.2c-1.5-1.4-2.6-3-3.5-4.8c-0.9-1.9-1.3-3.8-1.3-5.9v-56.2
		h19.9l38.4,62.8c0.8,1.1,1,2.1,0.8,3.2c-0.3,1.1-0.9,2-1.8,2.8c-1,0.8-2.2,1.4-3.6,1.9c-1.5,0.5-3.1,0.7-4.8,0.7v0.7
		c9.3,0,18.7,0,28,0c15,0,29.9,0,44.9-0.1c-1.8,0-4.5-1.5-6.1-2.3c-2-1-3.7-2.3-5.1-4.1c-3.2-4-0.6-10.4,1-14.5
		c4.5-11.5,9.1-22.9,13.6-34.4c17.7,0,35.4,0,53.1,0c4.4,11.2,8.8,22.3,13.2,33.5c2,5,3.9,10.6,1.8,15.5c-1.6,3.7-5.5,6.2-9.5,6.2
		c18.7,0.1,37.4,0.2,56.1,0.3C922.1,516.9,920,516.3,918,515.4z M684.5,373.2h23.9c5.2,0,10.3,0.7,15.4,2c5.1,1.4,9.6,3.5,13.6,6.3
		c4,2.8,7.2,6.4,9.6,10.6c2.4,4.3,3.6,9.3,3.6,15.1c0,5.8-1.2,10.9-3.6,15.1c-2.4,4.3-5.6,7.8-9.6,10.6c-4,2.8-8.5,4.9-13.6,6.2
		c-5.1,1.3-10.2,2-15.4,2h-23.9V373.2z M811,457.7l25.3-64.9l25,64.9H811z"/>
</g>
<g>
	<path class="st31" d="M239.6,541.6V580h-7.1v-16.5h-19.9V580h-7.1v-38.4h7.1v15.9h19.9v-15.9H239.6z"/>
	<path class="st31" d="M278,560.8c0-11.4,8.8-19.8,20.7-19.8s20.7,8.3,20.7,19.8c0,11.4-8.8,19.8-20.7,19.8S278,572.2,278,560.8z
		 M312.2,560.8c0-7.9-5.8-13.5-13.5-13.5c-7.7,0-13.5,5.7-13.5,13.5c0,7.9,5.8,13.5,13.5,13.5C306.4,574.3,312.2,568.7,312.2,560.8z
		"/>
	<path class="st31" d="M393,580l-0.1-25.5l-12.6,21.1h-3.2l-12.6-20.8V580h-6.8v-38.4h5.9l15.3,25.5l15-25.5h5.9l0.1,38.4H393z"/>
	<path class="st31" d="M469.7,574.1v6h-28.8v-38.4h28.1v6H448v10h18.6v5.9H448v10.6H469.7z"/>
	<path class="st31" d="M551.6,560.8c0-11.5,8.8-19.8,20.6-19.8c6.3,0,11.6,2.3,15.2,6.4l-4.6,4.3c-2.8-3-6.3-4.5-10.3-4.5
		c-8,0-13.7,5.6-13.7,13.5c0,7.9,5.8,13.5,13.7,13.5c4,0,7.5-1.5,10.3-4.6l4.6,4.4c-3.6,4.2-8.9,6.4-15.3,6.4
		C560.3,580.6,551.6,572.3,551.6,560.8z"/>
	<path class="st31" d="M649.1,571.1h-19.2l-3.8,8.9h-7.4l17.3-38.4h7l17.3,38.4h-7.5L649.1,571.1z M646.7,565.5l-7.2-16.8l-7.2,16.8
		H646.7z"/>
	<path class="st31" d="M721.2,580l-7.9-11.3c-0.5,0.1-1,0.1-1.5,0.1h-8.7V580H696v-38.4h15.8c10.1,0,16.4,5.2,16.4,13.7
		c0,5.8-3,10.1-8.2,12.1l8.8,12.6H721.2z M711.5,547.6h-8.3V563h8.3c6.3,0,9.5-2.9,9.5-7.7C721,550.4,717.8,547.6,711.5,547.6z"/>
	<path class="st31" d="M795.7,574.1v6h-28.8v-38.4H795v6H774v10h18.6v5.9H774v10.6H795.7z"/>
</g>
<g>
	<rect x="76.5" y="558.6" class="st31" width="90.8" height="3.4"/>
</g>
<g>
	<rect x="834.1" y="558.6" class="st31" width="90.8" height="3.4"/>
</g>
</svg>
