<?xml version="1.0" encoding="utf-8"?>
<!-- Generator: Adobe Illustrator 27.0.0, SVG Export Plug-In . SVG Version: 6.00 Build 0)  -->
<svg version="1.1" id="Layer_1" xmlns="http://www.w3.org/2000/svg" xmlns:xlink="http://www.w3.org/1999/xlink" x="0px" y="0px"
	 viewBox="0 0 699.5 690.1" style="enable-background:new 0 0 699.5 690.1;" xml:space="preserve">
<style type="text/css">
	.st0{fill:url(#SVGID_1_);}
	.st1{fill:#1D2E52;}
	.st2{fill:#1B2B50;}
	.st3{fill:url(#SVGID_00000060717448427237728330000000503896072335973305_);}
	.st4{fill:url(#SVGID_00000077299730690793253400000007813525245331926417_);}
	.st5{fill:url(#SVGID_00000051350347458373155990000012827617917482069951_);}
	.st6{fill:#FFFFFF;}
	.st7{fill:url(#SVGID_00000041287185747721539310000001297003037825262474_);}
	.st8{fill:url(#SVGID_00000145023019983888051730000009272894567406805918_);}
	.st9{fill:url(#SVGID_00000077290220758810165690000014272325443046232490_);}
	.st10{fill:url(#SVGID_00000152235185990545393850000002747307805999727498_);}
	.st11{fill:url(#SVGID_00000115493625866481400740000012988071131685658779_);}
	.st12{fill:url(#SVGID_00000182504870749290282170000000641163126529571519_);}
	.st13{fill:url(#SVGID_00000077322928047557129320000005090772486089769359_);}
	.st14{fill:url(#SVGID_00000116932310177453036350000001399683156755896474_);}
	.st15{fill:url(#SVGID_00000139292903234062131960000015243868766624839859_);}
	.st16{fill:url(#SVGID_00000075143738465321205100000013024942342747996844_);}
	.st17{fill:url(#SVGID_00000065034104266784129030000015856713574844187522_);}
	.st18{fill:url(#SVGID_00000173141816766369322070000015489205078652051876_);}
	.st19{fill:url(#SVGID_00000182512966070763709470000016946329955254714275_);}
	.st20{fill:url(#SVGID_00000014596073421440293450000004899023987075121037_);}
	.st21{fill:url(#SVGID_00000038381233364251072660000014347828637709525392_);}
	.st22{fill:url(#SVGID_00000025421234707878500300000005987769393679667129_);}
	.st23{fill:url(#SVGID_00000099624846291025604690000005847816703186069944_);}
	.st24{fill:url(#SVGID_00000018928164750920199290000017982442876866494651_);}
	.st25{fill:url(#SVGID_00000026866465697098842610000016916779958823465123_);}
	.st26{fill:url(#SVGID_00000094591595234654313170000004667237059378964867_);}
	.st27{fill:url(#SVGID_00000081621404392982582410000009447606037737063823_);}
	.st28{fill:url(#SVGID_00000069367806844787921130000009417025045216022152_);}
	.st29{fill:url(#SVGID_00000113323952746274402020000007919717994377687476_);}
	.st30{fill:url(#SVGID_00000057134400806019044020000017387240752439474356_);}
	.st31{fill:#A7A9AC;}
	.st32{fill:url(#SVGID_00000039853038480300570840000015094364893371006616_);}
	.st33{fill:url(#SVGID_00000084520194076115395450000004959937121934663099_);}
	.st34{fill:url(#SVGID_00000116193764717013053810000001265421938216598717_);}
	.st35{fill:url(#SVGID_00000162347189247231572610000011322429711704391611_);}
	.st36{fill:#6D6E71;}
	.st37{fill:url(#SVGID_00000093144414427299847670000010034731636731996094_);}
	.st38{fill:url(#SVGID_00000093139187666380198590000007223574291648033462_);}
	.st39{fill:url(#SVGID_00000092418013826837905630000007312673280583833769_);}
	.st40{fill:url(#SVGID_00000171696215919242376900000010083375148670263947_);}
	.st41{fill:#BCBEC0;}
</style>
<linearGradient id="SVGID_1_" gradientUnits="userSpaceOnUse" x1="155.3692" y1="282.1307" x2="609.0063" y2="282.1307">
	<stop  offset="0" style="stop-color:#1D7475"/>
	<stop  offset="0.5191" style="stop-color:#55ACA8"/>
	<stop  offset="1" style="stop-color:#1D7475"/>
</linearGradient>
<path class="st0" d="M609,195.5c-0.8,50.3-8.7,98.5-22.6,143.4c-60.3,11-120.8,34.2-120.8,34.2v-56.6l13.1-0.7l-107.9-73
	l-103.1,75.2l11.9,0.2v51.9c-57.2-18.8-124.1-27-124.1-27C370.1,153.5,603.8,194.6,609,195.5z"/>
<path class="st1" d="M577,366.3c-17.3,46.1-41.1,88.1-70.1,124.6c-33.9-30.6-88.1-62.6-88.1-62.6C474.9,392.8,552.4,372.3,577,366.3
	z"/>
<path class="st2" d="M411.3,578.5c-19.2,12.5-39.4,23.1-60.4,31.6c-133-53.4-199.8-150.9-232.8-244.3c0,0,0.6,0.1,1.8,0.2
	L411.3,578.5z"/>
<linearGradient id="SVGID_00000148663211519000084550000000327385851387777179_" gradientUnits="userSpaceOnUse" x1="118.0798" y1="472.2123" x2="485.3403" y2="472.2123">
	<stop  offset="0" style="stop-color:#263B68"/>
	<stop  offset="1" style="stop-color:#24355B"/>
</linearGradient>
<path style="fill:url(#SVGID_00000148663211519000084550000000327385851387777179_);" d="M485.3,516c-22.4,24.1-47.2,45.1-74,62.5
	L118.1,365.9C137.1,367.8,311.2,389,485.3,516z"/>
<linearGradient id="SVGID_00000168821700494751979120000009611025993072442295_" gradientUnits="userSpaceOnUse" x1="87.2757" y1="203.0372" x2="609.0047" y2="203.0372">
	<stop  offset="0" style="stop-color:#A27B41"/>
	<stop  offset="1.663943e-02" style="stop-color:#A57F45"/>
	<stop  offset="0.3492" style="stop-color:#E0C68F"/>
	<stop  offset="0.503" style="stop-color:#F7E2AC"/>
	<stop  offset="0.5852" style="stop-color:#EFD8A2"/>
	<stop  offset="0.7257" style="stop-color:#D9BE87"/>
	<stop  offset="0.9063" style="stop-color:#B6945B"/>
	<stop  offset="1" style="stop-color:#A27B41"/>
</linearGradient>
<path style="fill:url(#SVGID_00000168821700494751979120000009611025993072442295_);" d="M106.8,329.6
	C78.1,222.8,89.5,129.8,89.5,129.8c294.1-119.9,517.9,0,517.9,0c0.9,13.5,1.4,26.7,1.6,39.5c0,0-270.6-50.2-498.2,156.9L106.8,329.6
	z"/>
<linearGradient id="SVGID_00000062894912680316305390000002903758918003807376_" gradientUnits="userSpaceOnUse" x1="343.7329" y1="369.4432" x2="401.8273" y2="369.4432">
	<stop  offset="0" style="stop-color:#263B68"/>
	<stop  offset="1" style="stop-color:#24355B"/>
</linearGradient>
<polygon style="fill:url(#SVGID_00000062894912680316305390000002903758918003807376_);" points="343.7,331.9 401.8,331.9 
	401.8,397.3 378.1,407 343.7,389.8 "/>
</svg>
